<?xml version="1.0" encoding="UTF-8" standalone="no"?>
<!-- Created with Inkscape (http://www.inkscape.org/) -->

<svg
   xmlns:dc="http://purl.org/dc/elements/1.1/"
   xmlns:cc="http://creativecommons.org/ns#"
   xmlns:rdf="http://www.w3.org/1999/02/22-rdf-syntax-ns#"
   xmlns:svg="http://www.w3.org/2000/svg"
   xmlns="http://www.w3.org/2000/svg"
   xmlns:xlink="http://www.w3.org/1999/xlink"
   version="1.1"
   width="128"
   height="128"
   id="svg2">
  <defs
     id="defs4">
    <linearGradient
       id="linearGradient2961">
      <stop
         id="stop2963"
         style="stop-color:#88abcf;stop-opacity:1"
         offset="0" />
      <stop
         id="stop2965"
         style="stop-color:#547da5;stop-opacity:1"
         offset="1" />
    </linearGradient>
    <linearGradient
       x1="50.444054"
       y1="21.801989"
       x2="51.892208"
       y2="87.451668"
       id="linearGradient1586"
       xlink:href="#linearGradient2961"
       gradientUnits="userSpaceOnUse" />
  </defs>
  <metadata
     id="metadata7">
    <rdf:RDF>
      <cc:Work
         rdf:about="">
        <dc:format>image/svg+xml</dc:format>
        <dc:type
           rdf:resource="http://purl.org/dc/dcmitype/StillImage" />
        <dc:title></dc:title>
      </cc:Work>
    </rdf:RDF>
  </metadata>
  <g
     id="layer1">
    <g
       transform="matrix(1.104755,0,0,1.104755,8.7449882,8.3791735)"
       id="g2977">
      <rect
         width="60.757332"
         height="91.797966"
         x="19.797333"
         y="4.4580388"
         id="rect2233"
         style="fill:url(#linearGradient1586);fill-opacity:1;stroke:none" />
      <path
         d="m 6.25,4.4375 0,91.8125 1.5,0 0,-4.46875 c 0,-0.737188 0.6065607,-1.3125 1.34375,-1.3125 l 7.3125,0 c 0.737189,0 1.34375,0.575311 1.34375,1.3125 l 0,4.46875 2.21875,0 0,-10.25 c 0,-2.770001 2.23,-5 5,-5 l 50.0625,0 c 2.770002,-10e-7 5,2.23 5,5 l 0,10.25 1.8125,0 0,-4.46875 c 0,-0.737188 0.575311,-1.3125 1.3125,-1.3125 l 7.34375,0 c 0.737187,0 1.3125,0.575311 1.3125,1.3125 l 0,4.46875 1.96875,0 0,-91.8125 -13.75,0 0,18.5625 c 2e-6,2.770001 -2.23,5 -5,5 l -50.0625,0 c -2.77,1e-6 -5,-2.23 -5,-5 l 0,-18.5625 -13.71875,0 z M 9.09375,6.5 l 7.3125,0 C 17.143439,6.5 17.75,7.0753107 17.75,7.8125 l 0,7.3125 c 1e-6,0.73719 -0.606561,1.34375 -1.34375,1.34375 l -7.3125,0 C 8.3565608,16.46875 7.75,15.862189 7.75,15.125 l 0,-7.3125 C 7.75,7.0753108 8.3565607,6.5 9.09375,6.5 z m 74.0625,0 7.34375,0 c 0.737187,0 1.3125,0.5753107 1.3125,1.3125 l 0,7.3125 c -10e-7,0.73719 -0.575311,1.34375 -1.3125,1.34375 l -7.34375,0 c -0.737188,0 -1.3125,-0.606561 -1.3125,-1.34375 l 0,-7.3125 c 0,-0.7371892 0.575311,-1.3125 1.3125,-1.3125 z m -74.0625,20.96875 7.3125,0 c 0.737189,0 1.34375,0.606561 1.34375,1.34375 l 0,7.3125 c 1e-6,0.737191 -0.606561,1.34375 -1.34375,1.34375 l -7.3125,0 C 8.3565608,37.468749 7.75,36.862189 7.75,36.125 l 0,-7.3125 c 0,-0.73719 0.6065607,-1.34375 1.34375,-1.34375 z m 74.0625,0 7.34375,0 c 0.737187,0 1.3125,0.606561 1.3125,1.34375 l 0,7.3125 c -10e-7,0.737191 -0.575311,1.34375 -1.3125,1.34375 l -7.34375,0 c -0.737188,-10e-7 -1.3125,-0.606561 -1.3125,-1.34375 l 0,-7.3125 c 0,-0.73719 0.575311,-1.34375 1.3125,-1.34375 z M 24.96875,33 l 50.0625,0 c 2.770002,-10e-7 5,2.23 5,5 l 0,33 c 2e-6,2.770003 -2.23,5 -5,5 l -50.0625,0 c -2.77,3e-6 -5,-2.23 -5,-5 l 0,-33 c 0,-2.770001 2.23,-5 5,-5 z m -15.875,15.46875 7.3125,0 c 0.737189,0 1.34375,0.606561 1.34375,1.34375 l 0,7.3125 c 1e-6,0.737191 -0.606561,1.34375 -1.34375,1.34375 l -7.3125,0 C 8.3565608,58.468749 7.75,57.862189 7.75,57.125 l 0,-7.3125 c 0,-0.737188 0.6065607,-1.34375 1.34375,-1.34375 z m 74.0625,0 7.34375,0 c 0.737187,0 1.3125,0.606561 1.3125,1.34375 l 0,7.3125 c -10e-7,0.737191 -0.575311,1.34375 -1.3125,1.34375 l -7.34375,0 c -0.737188,-10e-7 -1.3125,-0.606561 -1.3125,-1.34375 l 0,-7.3125 c 0,-0.737188 0.575311,-1.34375 1.3125,-1.34375 z m -74.0625,21 7.3125,0 c 0.737189,0 1.34375,0.575311 1.34375,1.3125 l 0,7.34375 c 1e-6,0.737187 -0.606561,1.3125 -1.34375,1.3125 l -7.3125,0 C 8.3565608,79.437499 7.75,78.862189 7.75,78.125 l 0,-7.34375 c 0,-0.737188 0.6065607,-1.3125 1.34375,-1.3125 z m 74.0625,0 7.34375,0 c 0.737187,0 1.3125,0.575311 1.3125,1.3125 l 0,7.34375 c -10e-7,0.737187 -0.575311,1.3125 -1.3125,1.3125 l -7.34375,0 c -0.737188,-10e-7 -1.3125,-0.575311 -1.3125,-1.3125 l 0,-7.34375 c 0,-0.737188 0.575311,-1.3125 1.3125,-1.3125 z"
         id="rect1339"
         style="fill:#3f3f3f;fill-opacity:1;stroke:none" />
    </g>
  </g>
</svg>
