<?xml version="1.0" encoding="UTF-8" standalone="no"?>
<!-- Created with Inkscape (http://www.inkscape.org/) --><svg height="64" id="svg3917" inkscape:export-filename="/home/silvestre/Desktop/Neu/scalable/apps/evolution.png" inkscape:export-xdpi="90" inkscape:export-ydpi="90" inkscape:output_extension="org.inkscape.output.svg.inkscape" inkscape:version="0.46" sodipodi:docbase="/home/tommy/Pulpit" sodipodi:docname="alarm-clock.svg" sodipodi:version="0.32" version="1.0" width="64" xmlns="http://www.w3.org/2000/svg" xmlns:cc="http://creativecommons.org/ns#" xmlns:dc="http://purl.org/dc/elements/1.1/" xmlns:inkscape="http://www.inkscape.org/namespaces/inkscape" xmlns:rdf="http://www.w3.org/1999/02/22-rdf-syntax-ns#" xmlns:sodipodi="http://sodipodi.sourceforge.net/DTD/sodipodi-0.dtd" xmlns:svg="http://www.w3.org/2000/svg" xmlns:xlink="http://www.w3.org/1999/xlink">
  <metadata>
    <rdf:RDF xmlns:cc="http://web.resource.org/cc/" xmlns:dc="http://purl.org/dc/elements/1.1/" xmlns:rdf="http://www.w3.org/1999/02/22-rdf-syntax-ns#">
      <cc:Work rdf:about="">
        <dc:title></dc:title>
        <dc:description></dc:description>
        <dc:subject>
          <rdf:Bag>
            <rdf:li>unsorted</rdf:li>
          </rdf:Bag>
        </dc:subject>
        <dc:publisher>
          <cc:Agent rdf:about="http://www.openclipart.org/">
            <dc:title>Open Clip Art Library, Source: app-install-data, Source: app-install-data</dc:title>
          </cc:Agent>
        </dc:publisher>
        <dc:creator>
          <cc:Agent>
            <dc:title></dc:title>
          </cc:Agent>
        </dc:creator>
        <dc:rights>
          <cc:Agent>
            <dc:title></dc:title>
          </cc:Agent>
        </dc:rights>
        <dc:date></dc:date>
        <dc:format>image/svg+xml</dc:format>
        <dc:type rdf:resource="http://purl.org/dc/dcmitype/StillImage"/>
        <cc:license rdf:resource="Various, see docs/AUTHORS_app-install"/>
        <dc:language>en</dc:language>
      </cc:Work>
    </rdf:RDF>
  </metadata>
  <defs id="defs3919">
    <inkscape:perspective id="perspective53" inkscape:persp3d-origin="24 : 16 : 1" inkscape:vp_x="0 : 24 : 1" inkscape:vp_y="0 : 1000 : 0" inkscape:vp_z="48 : 24 : 1" sodipodi:type="inkscape:persp3d"/>
    <linearGradient id="linearGradient8358" inkscape:collect="always">
      <stop id="stop8360" offset="0" style="stop-color:#f5c548;stop-opacity:0.73725492"/>
      <stop id="stop8362" offset="1" style="stop-color:#ffce3e;stop-opacity:0.71372551"/>
    </linearGradient>
    <linearGradient id="linearGradient4934">
      <stop id="stop4938" offset="0" style="stop-color:#f9f9f9;stop-opacity:1"/>
      <stop id="stop4940" offset="1" style="stop-color:#c3c3c3;stop-opacity:1"/>
    </linearGradient>
    <linearGradient gradientUnits="userSpaceOnUse" id="linearGradient6540" inkscape:collect="always" x1="29.183714" x2="83.525612" xlink:href="#linearGradient6534" y1="367.82727" y2="21.705061"/>
    <radialGradient cx="56.109314" cy="115.14162" fx="56.109314" fy="136.4689" gradientTransform="matrix(0.91358,2.206993e-7,-4.100829e-8,0.169753,4.848958,95.59596)" gradientUnits="userSpaceOnUse" id="radialGradient6525" inkscape:collect="always" r="54.105412" xlink:href="#linearGradient6519"/>
    <linearGradient id="linearGradient4308">
      <stop id="stop4310" offset="0.0000000" style="stop-color:#ffffff;stop-opacity:0.22916669;"/>
      <stop id="stop4312" offset="1" style="stop-color:#ffffff;stop-opacity:0;"/>
    </linearGradient>
    <linearGradient id="linearGradient5044" inkscape:collect="always">
      <stop id="stop5046" offset="0" style="stop-color:#ffffff;stop-opacity:1;"/>
      <stop id="stop5048" offset="1" style="stop-color:#ffffff;stop-opacity:0;"/>
    </linearGradient>
    <linearGradient id="linearGradient6519" inkscape:collect="always">
      <stop id="stop6521" offset="0" style="stop-color:black;stop-opacity:0.39215687"/>
      <stop id="stop6523" offset="1" style="stop-color:#000000;stop-opacity:0;"/>
    </linearGradient>
    <linearGradient id="linearGradient6534" inkscape:collect="always">
      <stop id="stop6536" offset="0" style="stop-color:#000000;stop-opacity:0.39600000"/>
      <stop id="stop6538" offset="1" style="stop-color:#000000;stop-opacity:0;"/>
    </linearGradient>
    <linearGradient id="linearGradient4206" inkscape:collect="always">
      <stop id="stop4208" offset="0" style="stop-color:#ffffff;stop-opacity:1;"/>
      <stop id="stop4210" offset="1" style="stop-color:#ffffff;stop-opacity:0.36909872"/>
    </linearGradient>
    <linearGradient gradientTransform="matrix(0.328065,0,0,0.345482,-2.097786,-0.476988)" gradientUnits="userSpaceOnUse" id="linearGradient5825" inkscape:collect="always" x1="59.64286" x2="59.64286" xlink:href="#linearGradient4206" y1="14.832381" y2="121.82737"/>
    <linearGradient gradientTransform="matrix(0.356801,0,0,0.39171,-2.564881,-8.788449e-2)" gradientUnits="userSpaceOnUse" id="linearGradient5827" inkscape:collect="always" x1="67.070114" x2="67.070114" xlink:href="#linearGradient5044" y1="-3.7457006" y2="69.195572"/>
    <radialGradient cx="83.842957" cy="105.0536" fx="83.842957" fy="105.0536" gradientTransform="matrix(0.33442,-8.977832e-2,8.94562e-2,0.334489,-12.98936,9.897861)" gradientUnits="userSpaceOnUse" id="radialGradient5829" inkscape:collect="always" r="56.442806" xlink:href="#linearGradient4308"/>
    <radialGradient cx="77.420738" cy="82.518806" fx="77.420738" fy="82.518806" gradientTransform="matrix(0.406265,0,0,0.406434,-5.70297,-4.325582)" gradientUnits="userSpaceOnUse" id="radialGradient5831" inkscape:collect="always" r="56.442806" xlink:href="#linearGradient4934"/>
    <radialGradient cx="21.4375" cy="24.1875" fx="21.4375" fy="24.1875" gradientTransform="matrix(-0.888349,-0.956685,-0.948891,1.021886,61.9953,19.79207)" gradientUnits="userSpaceOnUse" id="radialGradient8385" inkscape:collect="always" r="9.6875" xlink:href="#linearGradient8358"/>
    <linearGradient id="linearGradient7473">
      <stop id="stop7475" offset="0" style="stop-color:white;stop-opacity:1;"/>
      <stop id="stop7481" offset="0.5" style="stop-color:#fffc9d;stop-opacity:0.97254902;"/>
      <stop id="stop7483" offset="0.75" style="stop-color:#fff409;stop-opacity:0.67676765;"/>
      <stop id="stop7477" offset="1" style="stop-color:#fff409;stop-opacity:0;"/>
    </linearGradient>
    <radialGradient cx="27.930717" cy="18.124739" fx="27.930717" fy="18.124739" gradientUnits="userSpaceOnUse" id="radialGradient9365" inkscape:collect="always" r="9.1923885" xlink:href="#linearGradient7473"/>
  </defs>
  <sodipodi:namedview bordercolor="#666666" borderopacity="1.0" id="base" inkscape:current-layer="layer1" inkscape:cx="29.100161" inkscape:cy="39.605735" inkscape:document-units="px" inkscape:grid-bbox="true" inkscape:pageopacity="0.0" inkscape:pageshadow="2" inkscape:showpageshadow="false" inkscape:window-height="975" inkscape:window-width="1679" inkscape:window-x="1" inkscape:window-y="49" inkscape:zoom="4" pagecolor="#ffffff" showborder="false" showgrid="false"/>
  <g id="layer1" inkscape:groupmode="layer" inkscape:label="Layer 1">
    <g id="g2426" transform="matrix(1.3692428,0,0,1.4185731,4.1996139e-2,-4.1350328)">
      <path d="M 123.74908,70.848709 A 56.442806,56.442806 0 1 1 10.863468,70.848709 A 56.442806,56.442806 0 1 1 123.74908,70.848709 z" id="path6532" sodipodi:cx="67.306274" sodipodi:cy="70.848709" sodipodi:rx="56.442806" sodipodi:ry="56.442806" sodipodi:type="arc" style="fill:url(#linearGradient6540);fill-opacity:1;fill-rule:evenodd;stroke:none;stroke-width:3;stroke-linecap:round;stroke-linejoin:round;marker:none;marker-start:none;marker-mid:none;marker-end:none;stroke-miterlimit:4;stroke-dasharray:none;stroke-dashoffset:0;stroke-opacity:1;visibility:visible;display:inline;overflow:visible" transform="matrix(0.34867,0,-9.434273e-2,0.106868,9.535079,31.41097)"/>
      <path d="M 110.21473,115.14162 A 54.105412,9.1845608 0 1 1 2.0039024,115.14162 A 54.105412,9.1845608 0 1 1 110.21473,115.14162 z" id="path5065" sodipodi:cx="56.109314" sodipodi:cy="115.14162" sodipodi:rx="54.105412" sodipodi:ry="9.1845608" sodipodi:type="arc" style="fill:url(#radialGradient6525);fill-opacity:1;fill-rule:evenodd;stroke:none;stroke-width:3;stroke-linecap:round;stroke-linejoin:round;marker:none;marker-start:none;marker-mid:none;marker-end:none;stroke-miterlimit:4;stroke-dasharray:none;stroke-dashoffset:0;stroke-opacity:1;visibility:visible;display:inline;overflow:visible" transform="matrix(0.377952,0,0,0.547296,-0.78805,-20.01254)"/>
      <path d="M 41.500013,23.999987 C 41.500013,35.315984 32.319802,44.499978 21.008473,44.499978 C 9.6971422,44.499978 0.51693186,35.315984 0.51693186,23.999987 C 0.51693186,12.683993 9.6971422,3.4999964 21.008473,3.4999964 C 32.319802,3.4999964 41.500013,12.683993 41.500013,23.999987 z" id="path1359" style="fill:url(#radialGradient5831);fill-opacity:1;fill-rule:evenodd;stroke:#1871bc;stroke-width:0.99999905;stroke-linecap:round;stroke-linejoin:round;marker:none;marker-start:none;marker-mid:none;marker-end:none;stroke-miterlimit:4;stroke-dashoffset:0;stroke-opacity:1;visibility:visible;display:inline;overflow:visible"/>
      <path d="M 38.593015,24.635308 C 38.593015,35.303636 30.36523,43.96199 20.227426,43.96199 C 10.08962,43.96199 1.8618376,35.303636 1.8618376,24.635308 C 1.8618376,13.966978 10.08962,5.3086244 20.227426,5.3086244 C 30.36523,5.3086244 38.593015,13.966978 38.593015,24.635308 z" id="path2854" style="fill:url(#radialGradient5829);fill-opacity:1;fill-rule:evenodd;stroke:none;stroke-width:3;stroke-linecap:round;stroke-linejoin:round;marker:none;marker-start:none;marker-mid:none;marker-end:none;stroke-miterlimit:4;stroke-dashoffset:0;stroke-opacity:1;visibility:visible;display:inline;overflow:visible"/>
      <path d="M 37.535883,23.999987 C 37.535883,34.211983 29.668879,42.499978 19.975611,42.499978 C 10.28234,42.499978 2.4153385,34.211983 2.4153385,23.999987 C 2.4153385,13.787993 10.28234,5.4999961 19.975611,5.4999961 C 29.668879,5.4999961 37.535883,13.787993 37.535883,23.999987 z" id="path5733" style="fill:none;fill-opacity:1;fill-rule:evenodd;stroke:#5192ca;stroke-width:2.99999714;stroke-linecap:round;stroke-linejoin:round;marker:none;marker-start:none;marker-mid:none;marker-end:none;stroke-miterlimit:4;stroke-dasharray:none;stroke-dashoffset:0;stroke-opacity:1;visibility:visible;display:inline;overflow:visible"/>
      <path d="M 38.499994,23.999999 C 38.499994,34.764001 30.204408,43.500003 19.983062,43.500003 C 9.7617148,43.500003 1.4661331,34.764001 1.4661331,23.999999 C 1.4661331,13.235999 9.7617148,4.4999982 19.983062,4.4999982 C 30.204408,4.4999982 38.499994,13.235999 38.499994,23.999999 z" id="path3331" style="fill:none;fill-opacity:1;fill-rule:evenodd;stroke:url(#linearGradient5825);stroke-width:0.99999481;stroke-linecap:round;stroke-linejoin:round;marker:none;marker-start:none;marker-mid:none;marker-end:none;stroke-miterlimit:4;stroke-dashoffset:0;stroke-opacity:0.79399139;visibility:visible;display:inline;overflow:visible"/>
      <path d="M 19.166385,9 L 19.166385,13.25 L 21.164856,13.25 L 21.164856,9 L 19.166385,9 z M 6,22.875 L 6,25.000001 L 9.8793814,25.000001 L 9.8793814,22.875 L 6,22.875 z M 30.451859,22.875 L 30.451859,25.000001 L 34.213683,25.000001 L 34.213683,22.875 L 30.451859,22.875 z M 19.166385,35 L 19.166385,39 L 21.164856,39 L 21.164856,35 L 19.166385,35 z" id="rect5821" sodipodi:nodetypes="cccccccccccccccccccc" style="opacity:0.68619247;fill:#696969;fill-opacity:0.86266097;stroke:none;stroke-width:1;stroke-linecap:round;stroke-linejoin:round;stroke-miterlimit:4;stroke-dasharray:none;stroke-dashoffset:0;stroke-opacity:1"/>
      <path d="M 14.449758,12 L 12.894862,12.982863 L 13.756035,14.595767 L 15.310931,13.612903 L 14.449758,12 z M 25.573245,12 L 24.735993,13.612903 L 26.29089,14.595767 L 27.152063,12.982863 L 25.573245,12 z M 9.4023258,16.637097 L 8.4933096,18.350806 L 9.9525196,19.258065 L 10.861536,17.569557 L 9.4023258,16.637097 z M 30.548913,16.6875 L 29.089702,17.61996 L 29.998718,19.308468 L 31.457929,18.40121 L 30.548913,16.6875 z M 29.998718,29.590726 L 29.089702,31.279233 L 30.548913,32.211694 L 31.457929,30.497984 L 29.998718,29.590726 z M 9.9525196,29.641129 L 8.4933096,30.573588 L 9.4023258,32.262097 L 10.861536,31.329637 L 9.9525196,29.641129 z M 13.684271,34.404233 L 12.847018,36.017137 L 14.401916,37 L 15.263089,35.387097 L 13.684271,34.404233 z M 26.338732,34.404233 L 24.783836,35.387097 L 25.645009,37 L 27.199906,36.017137 L 26.338732,34.404233 z" id="rect5837" style="opacity:0.68619247;fill:#696969;fill-opacity:1;stroke:none;stroke-width:1;stroke-linecap:round;stroke-linejoin:round;stroke-miterlimit:4;stroke-dasharray:none;stroke-dashoffset:0;stroke-opacity:1"/>
      <path d="M 29.01564,29.942558 L 21.166329,25.013008 L 11.153591,25.028944 L 11.084617,23 L 20.42026,22.948344 L 21.627402,23.005927 L 30,28.237596 L 29.01564,29.942558 z" id="rect5849" sodipodi:nodetypes="cccccccc" style="opacity:0.96610879;fill:#414141;fill-opacity:1;stroke:none;stroke-width:1;stroke-linecap:round;stroke-linejoin:round;stroke-miterlimit:4;stroke-dashoffset:0;stroke-opacity:1"/>
      <path d="M 20,9.9999754 C 12.824001,9.9999807 7.0000009,16.271991 7,24 L 19.999997,23.999991 L 20,9.9999754 z" id="path7483" style="fill:url(#radialGradient8385);fill-opacity:1;stroke:none;stroke-width:3;stroke-linecap:round;stroke-linejoin:round;stroke-miterlimit:4;stroke-dashoffset:0;stroke-opacity:1"/>
      <path d="M 20.5,4 C 30.754694,4.2823224 39,13.13788 39,24 C 39,34.862123 30.754694,43.717678 20.5,44 C 20.666142,44.004082 20.832881,44 21,44 C 32.039999,44 41,35.040002 41,24 C 41,12.960001 32.039999,4 21,4 C 20.832881,4 20.666142,3.9959175 20.5,4 z" id="path8387" style="fill:#4082bc;fill-opacity:1;fill-rule:evenodd;stroke:none;stroke-width:0.99999905;stroke-linecap:round;stroke-linejoin:round;marker:none;marker-start:none;marker-mid:none;marker-end:none;stroke-miterlimit:4;stroke-dashoffset:0;stroke-opacity:1;visibility:visible;display:inline;overflow:visible"/>
      <path d="M 36.112092,16.748391 C 36.112092,23.233503 28.882954,28.496784 19.975619,28.496784 C 11.068285,28.496784 3.8391468,23.233503 3.8391468,16.748391 C 3.8391468,11.679755 11.747535,5 19.975619,5 C 29.174306,5 36.112092,11.973626 36.112092,16.748391 z" id="path4316" style="opacity:0.68619247;fill:url(#linearGradient5827);fill-opacity:1;fill-rule:evenodd;stroke:none;stroke-width:3;stroke-linecap:round;stroke-linejoin:round;marker:none;marker-start:none;marker-mid:none;marker-end:none;stroke-miterlimit:4;stroke-dashoffset:0;stroke-opacity:1;visibility:visible;display:inline;overflow:visible"/>
    </g>
  </g>
</svg>
