<?xml version="1.0" encoding="UTF-8" standalone="no"?>
<!-- Created with Inkscape (http://www.inkscape.org/) -->
<svg
   xmlns:dc="http://purl.org/dc/elements/1.1/"
   xmlns:cc="http://creativecommons.org/ns#"
   xmlns:rdf="http://www.w3.org/1999/02/22-rdf-syntax-ns#"
   xmlns:svg="http://www.w3.org/2000/svg"
   xmlns="http://www.w3.org/2000/svg"
   xmlns:xlink="http://www.w3.org/1999/xlink"
   xmlns:sodipodi="http://sodipodi.sourceforge.net/DTD/sodipodi-0.dtd"
   xmlns:inkscape="http://www.inkscape.org/namespaces/inkscape"
   width="48"
   height="48"
   id="svg2"
   sodipodi:version="0.32"
   inkscape:version="0.46"
   version="1.0"
   sodipodi:docname="scalable.svg"
   inkscape:output_extension="org.inkscape.output.svg.inkscape"
   inkscape:export-filename="E:\Digital Art, Computer Graphics, Icon WIPs, etc\Icons\xTom Tango Opera-High Res Remake\512 PNG.png"
   inkscape:export-xdpi="960"
   inkscape:export-ydpi="960">
  <defs
     id="defs4">
    <linearGradient
       inkscape:collect="always"
       id="linearGradient3478">
      <stop
         style="stop-color:#cc0000;stop-opacity:1"
         offset="0"
         id="stop3480" />
      <stop
         style="stop-color:#a40000;stop-opacity:1"
         offset="1"
         id="stop3482" />
    </linearGradient>
    <linearGradient
       inkscape:collect="always"
       id="linearGradient3242">
      <stop
         style="stop-color:#1d0808;stop-opacity:1;"
         offset="0"
         id="stop3244" />
      <stop
         style="stop-color:#1d0808;stop-opacity:0;"
         offset="1"
         id="stop3246" />
    </linearGradient>
    <linearGradient
       id="linearGradient3214">
      <stop
         style="stop-color:#ffffff;stop-opacity:1;"
         offset="0"
         id="stop3216" />
      <stop
         style="stop-color:#ffffff;stop-opacity:0;"
         offset="1"
         id="stop3218" />
    </linearGradient>
    <inkscape:perspective
       sodipodi:type="inkscape:persp3d"
       inkscape:vp_x="0 : 526.18109 : 1"
       inkscape:vp_y="0 : 1000 : 0"
       inkscape:vp_z="744.09448 : 526.18109 : 1"
       inkscape:persp3d-origin="372.04724 : 350.78739 : 1"
       id="perspective10" />
    <inkscape:perspective
       id="perspective2390"
       inkscape:persp3d-origin="372.04724 : 350.78739 : 1"
       inkscape:vp_z="744.09448 : 526.18109 : 1"
       inkscape:vp_y="0 : 1000 : 0"
       inkscape:vp_x="0 : 526.18109 : 1"
       sodipodi:type="inkscape:persp3d" />
    <linearGradient
       inkscape:collect="always"
       xlink:href="#linearGradient3214"
       id="linearGradient3220"
       x1="292.13196"
       y1="420.37677"
       x2="292.13196"
       y2="371.1377"
       gradientUnits="userSpaceOnUse"
       gradientTransform="translate(28.25,2.125)" />
    <radialGradient
       inkscape:collect="always"
       xlink:href="#linearGradient3242"
       id="radialGradient3248"
       cx="39.9375"
       cy="39.9375"
       fx="39.9375"
       fy="39.9375"
       r="18.5625"
       gradientTransform="matrix(1,0,0,0.2929293,0,28.238636)"
       gradientUnits="userSpaceOnUse" />
    <inkscape:perspective
       id="perspective3257"
       inkscape:persp3d-origin="372.04724 : 350.78739 : 1"
       inkscape:vp_z="744.09448 : 526.18109 : 1"
       inkscape:vp_y="0 : 1000 : 0"
       inkscape:vp_x="0 : 526.18109 : 1"
       sodipodi:type="inkscape:persp3d" />
    <inkscape:perspective
       id="perspective3370"
       inkscape:persp3d-origin="500 : 333.33333 : 1"
       inkscape:vp_z="1000 : 500 : 1"
       inkscape:vp_y="0 : 1000 : 0"
       inkscape:vp_x="0 : 500 : 1"
       sodipodi:type="inkscape:persp3d" />
    <linearGradient
       inkscape:collect="always"
       xlink:href="#linearGradient3478"
       id="linearGradient3484"
       x1="312.72925"
       y1="405.33243"
       x2="323.17447"
       y2="443.86057"
       gradientUnits="userSpaceOnUse" />
    <filter
       inkscape:collect="always"
       id="filter3309">
      <feGaussianBlur
         inkscape:collect="always"
         stdDeviation="0.060549652"
         id="feGaussianBlur3311" />
    </filter>
  </defs>
  <sodipodi:namedview
     id="base"
     pagecolor="#ffffff"
     bordercolor="#666666"
     borderopacity="1.0"
     gridtolerance="10000"
     guidetolerance="10"
     objecttolerance="10"
     inkscape:pageopacity="0.0"
     inkscape:pageshadow="2"
     inkscape:zoom="11.313708"
     inkscape:cx="26.224917"
     inkscape:cy="24.348339"
     inkscape:document-units="px"
     inkscape:current-layer="layer1"
     showgrid="false"
     inkscape:window-width="1440"
     inkscape:window-height="853"
     inkscape:window-x="0"
     inkscape:window-y="9" />
  <metadata
     id="metadata7">
    <rdf:RDF>
      <cc:Work
         rdf:about="">
        <dc:format>image/svg+xml</dc:format>
        <dc:type
           rdf:resource="http://purl.org/dc/dcmitype/StillImage" />
      </cc:Work>
    </rdf:RDF>
  </metadata>
  <g
     inkscape:label="Layer 1"
     inkscape:groupmode="layer"
     id="layer1"
     transform="translate(-296,-399.79074)">
    <path
       sodipodi:type="arc"
       style="opacity:0.75;fill:url(#radialGradient3248);fill-opacity:1;stroke:none;stroke-width:1;stroke-linecap:round;stroke-miterlimit:9.69999981;stroke-dasharray:none;stroke-opacity:1"
       id="path3232"
       sodipodi:cx="39.9375"
       sodipodi:cy="39.9375"
       sodipodi:rx="18.5625"
       sodipodi:ry="5.4375"
       d="M 58.5,39.9375 A 18.5625,5.4375 0 1 1 21.375,39.9375 A 18.5625,5.4375 0 1 1 58.5,39.9375 z"
       transform="translate(280.25,401.79074)" />
    <path
       style="opacity:1;fill:url(#linearGradient3484);fill-opacity:1;stroke:#a40000;stroke-width:1;stroke-linecap:round;stroke-miterlimit:9.69999980999999960;stroke-dasharray:none;stroke-opacity:1"
       d="M 320.00041,401.94334 C 309.54045,401.94334 301.03166,411.46599 301.03166,423.19334 C 301.03166,434.92068 309.54045,444.41209 320.00041,444.41209 C 330.46037,444.41209 338.93791,434.92068 338.93791,423.19334 C 338.93791,411.46599 330.46037,401.94334 320.00041,401.94334 z M 319.56291,405.31834 C 324.16539,405.31834 327.87541,411.01162 327.87541,418.09959 L 327.87541,428.75584 C 327.87541,435.84381 324.16539,441.53709 319.56291,441.53709 C 314.96044,441.53709 311.28166,435.84381 311.28166,428.75584 L 311.28166,418.09959 C 311.28166,411.01162 314.96044,405.31834 319.56291,405.31834 z"
       id="path2396" />
    <path
       transform="matrix(0.9504865,0,0,1.0234761,297.35165,399.88038)"
       d="M 42.701298,22.701298 A 18.90909,19.688313 0 1 1 4.8831177,22.701298 A 18.90909,19.688313 0 1 1 42.701298,22.701298 z"
       sodipodi:ry="19.688313"
       sodipodi:rx="18.90909"
       sodipodi:cy="22.701298"
       sodipodi:cx="23.792208"
       id="path3191"
       style="opacity:0.3;fill:none;fill-opacity:1;stroke:#ffffff;stroke-width:1.01388383;stroke-linecap:round;stroke-miterlimit:9.69999981;stroke-dasharray:none;stroke-opacity:0.93333333"
       sodipodi:type="arc" />
    <path
       style="opacity:0.40000000000000002;fill:url(#linearGradient3220);fill-opacity:1;stroke:none;stroke-width:1.03988730999999990;stroke-linecap:round;stroke-miterlimit:9.69999980999999960;stroke-dasharray:none;stroke-opacity:0.93333332999999996;filter:url(#filter3309)"
       d="M 320.0625,402.47824 C 308.74493,401.97474 300.2159,413.62654 301.81223,426.20035 C 303.36724,423.31164 308.09719,417.79203 310.72504,417.51328 C 311.01656,409.98151 314.95458,404.95475 319.6029,404.79258 C 324.02903,404.63816 328.05586,410.14567 328.3684,416.9211 C 333.17186,417.77618 337.21354,422.79133 338.23798,425.88449 C 339.86446,413.70506 331.01682,402.23894 320.0625,402.47824 z"
       id="path3205"
       sodipodi:nodetypes="cccsccc" />
    <rect
       style="opacity:0.25;fill:none;fill-opacity:1;stroke:#ffffff;stroke-width:0.98336083;stroke-linecap:round;stroke-miterlimit:9.69999981;stroke-dasharray:none;stroke-opacity:1"
       id="rect3230"
       width="18.470484"
       height="37.951336"
       x="310.30557"
       y="404.34631"
       ry="13.621941"
       rx="9.10748" />
    <g
       id="g3373"
       transform="matrix(0.174686,0,0,0.174686,234.60984,388.66223)">
      <path
         id="rect139_1_"
         d="M 164.5164,135.3145 L 176.6932,135.3145 C 179.6698,135.3145 182.0828,137.7295 182.0828,140.7071 L 182.0828,152.8829 C 182.0828,155.8604 179.6697,158.2735 176.6932,158.2735 L 164.5164,158.2735 C 161.5398,158.2735 159.1248,155.8604 159.1248,152.8829 L 159.1248,140.7071 C 159.1248,137.7295 161.5398,135.3145 164.5164,135.3145 z"
         style="fill:#8ae234;fill-opacity:1" />
      <path
         id="rect145_1_"
         d="M 194.1248,135.3145 L 206.2996,135.3145 C 209.2781,135.3145 211.6912,137.7295 211.6912,140.7071 L 211.6912,152.8829 C 211.6912,155.8604 209.2781,158.2735 206.2996,158.2735 L 194.1248,158.2735 C 191.1463,158.2735 188.7322,155.8604 188.7322,152.8829 L 188.7322,140.7071 C 188.7322,137.7295 191.1462,135.3145 194.1248,135.3145 z"
         style="fill:#73d216;fill-opacity:1" />
      <path
         id="rect157_1_"
         d="M 223.7312,135.3145 L 235.907,135.3145 C 238.8845,135.3145 241.2976,137.7295 241.2976,140.7071 L 241.2976,152.8829 C 241.2976,155.8604 238.8845,158.2735 235.907,158.2735 L 223.7312,158.2735 C 220.7537,158.2735 218.3396,155.8604 218.3396,152.8829 L 218.3396,140.7071 C 218.3396,137.7295 220.7537,135.3145 223.7312,135.3145 z"
         style="fill:#4e9a06;fill-opacity:1" />
      <path
         id="rect140_1_"
         d="M 164.5164,76.099602 L 176.6932,76.099602 C 179.6698,76.099602 182.0828,78.514602 182.0828,81.492202 L 182.0828,93.668002 C 182.0828,96.645502 179.6697,99.058602 176.6932,99.058602 L 164.5164,99.058602 C 161.5398,99.058602 159.1248,96.645502 159.1248,93.668002 L 159.1248,81.492202 C 159.1248,78.514702 161.5398,76.099602 164.5164,76.099602 z"
         style="fill:#fcaf3e" />
      <path
         id="rect146_1_"
         d="M 194.1248,76.099602 L 206.2996,76.099602 C 209.2781,76.099602 211.6912,78.514602 211.6912,81.492202 L 211.6912,93.668002 C 211.6912,96.645502 209.2781,99.058602 206.2996,99.058602 L 194.1248,99.058602 C 191.1463,99.058602 188.7322,96.645502 188.7322,93.668002 L 188.7322,81.492202 C 188.7322,78.514702 191.1462,76.099602 194.1248,76.099602 z"
         style="fill:#f57900" />
      <path
         id="rect158_1_"
         d="M 223.7312,76.099602 L 235.907,76.099602 C 238.8845,76.099602 241.2976,78.514602 241.2976,81.492202 L 241.2976,93.668002 C 241.2976,96.645502 238.8845,99.058602 235.907,99.058602 L 223.7312,99.058602 C 220.7537,99.058602 218.3396,96.645502 218.3396,93.668002 L 218.3396,81.492202 C 218.3396,78.514702 220.7537,76.099602 223.7312,76.099602 z"
         style="fill:#ce5c00" />
      <path
         id="rect141_3_"
         d="M 164.5164,164.9238 L 176.6932,164.9238 C 179.6698,164.9238 182.0828,167.3369 182.0828,170.3144 L 182.0828,182.4892 C 182.0828,185.4677 179.6697,187.8818 176.6932,187.8818 L 164.5164,187.8818 C 161.5398,187.8818 159.1248,185.4677 159.1248,182.4892 L 159.1248,170.3144 C 159.1248,167.3369 161.5398,164.9238 164.5164,164.9238 z"
         style="fill:#729fcf" />
      <path
         id="rect147_3_"
         d="M 194.1248,164.9238 L 206.2996,164.9238 C 209.2781,164.9238 211.6912,167.3369 211.6912,170.3144 L 211.6912,182.4892 C 211.6912,185.4677 209.2781,187.8818 206.2996,187.8818 L 194.1248,187.8818 C 191.1463,187.8818 188.7322,185.4677 188.7322,182.4892 L 188.7322,170.3144 C 188.7322,167.3369 191.1462,164.9238 194.1248,164.9238 z"
         style="fill:#3465a4" />
      <path
         id="rect159_3_"
         d="M 223.7312,164.9238 L 235.907,164.9238 C 238.8845,164.9238 241.2976,167.3369 241.2976,170.3144 L 241.2976,182.4892 C 241.2976,185.4677 238.8845,187.8818 235.907,187.8818 L 223.7312,187.8818 C 220.7537,187.8818 218.3396,185.4677 218.3396,182.4892 L 218.3396,170.3144 C 218.3396,167.3369 220.7537,164.9238 223.7312,164.9238 z"
         style="fill:#204a87" />
      <path
         id="rect168_1_"
         d="M 164.5164,268.9414 L 176.6932,268.9414 C 179.6698,268.9414 182.0828,271.3545 182.0828,274.333 L 182.0828,286.5098 C 182.0828,289.4864 179.6697,291.9014 176.6932,291.9014 L 164.5164,291.9014 C 161.5398,291.9014 159.1248,289.4864 159.1248,286.5098 L 159.1248,274.333 C 159.1248,271.3545 161.5398,268.9414 164.5164,268.9414 z"
         style="fill:#eeeeec" />
      <path
         id="rect169_1_"
         d="M 194.1248,268.9414 L 206.2996,268.9414 C 209.2781,268.9414 211.6912,271.3545 211.6912,274.333 L 211.6912,286.5098 C 211.6912,289.4864 209.2781,291.9014 206.2996,291.9014 L 194.1248,291.9014 C 191.1463,291.9014 188.7322,289.4864 188.7322,286.5098 L 188.7322,274.333 C 188.7322,271.3545 191.1462,268.9414 194.1248,268.9414 z"
         style="fill:#d3d7cf" />
      <path
         id="rect181_1_"
         d="M 223.7312,268.9414 L 235.907,268.9414 C 238.8845,268.9414 241.2976,271.3545 241.2976,274.333 L 241.2976,286.5098 C 241.2976,289.4864 238.8845,291.9014 235.907,291.9014 L 223.7312,291.9014 C 220.7537,291.9014 218.3396,289.4864 218.3396,286.5098 L 218.3396,274.333 C 218.3396,271.3545 220.7537,268.9414 223.7312,268.9414 z"
         style="fill:#babdb6" />
      <path
         id="rect171_1_"
         d="M 194.1248,298.5488 L 206.2996,298.5488 C 209.2781,298.5488 211.6912,300.9648 211.6912,303.9404 L 211.6912,316.1162 C 211.6912,319.0947 209.2781,321.5068 206.2996,321.5068 L 194.1248,321.5068 C 191.1463,321.5068 188.7322,319.0947 188.7322,316.1162 L 188.7322,303.9404 C 188.7322,300.9648 191.1462,298.5488 194.1248,298.5488 z"
         style="fill:#555753" />
      <path
         id="rect183_1_"
         d="M 223.7312,298.5488 L 235.907,298.5488 C 238.8845,298.5488 241.2976,300.9648 241.2976,303.9404 L 241.2976,316.1162 C 241.2976,319.0947 238.8845,321.5068 235.907,321.5068 L 223.7312,321.5068 C 220.7537,321.5068 218.3396,319.0947 218.3396,316.1162 L 218.3396,303.9404 C 218.3396,300.9648 220.7537,298.5488 223.7312,298.5488 z"
         style="fill:#2e3436" />
      <path
         id="rect193_1_"
         d="M 164.5164,298.5488 L 176.6932,298.5488 C 179.6698,298.5488 182.0828,300.9648 182.0828,303.9404 L 182.0828,316.1162 C 182.0828,319.0947 179.6697,321.5068 176.6932,321.5068 L 164.5164,321.5068 C 161.5398,321.5068 159.1248,319.0947 159.1248,316.1162 L 159.1248,303.9404 C 159.1248,300.9648 161.5398,298.5488 164.5164,298.5488 z"
         style="fill:#888a85" />
      <path
         id="rect301_1_"
         d="M 164.5164,46.493202 L 176.6932,46.493202 C 179.6698,46.493202 182.0828,48.906302 182.0828,51.883802 L 182.0828,64.059602 C 182.0828,67.037102 179.6697,69.451202 176.6932,69.451202 L 164.5164,69.451202 C 161.5398,69.451202 159.1248,67.037102 159.1248,64.059602 L 159.1248,51.883802 C 159.1248,48.906302 161.5398,46.493202 164.5164,46.493202 z"
         style="fill:#fce94f" />
      <path
         id="rect302_1_"
         d="M 194.1248,46.493202 L 206.2996,46.493202 C 209.2781,46.493202 211.6912,48.906302 211.6912,51.883802 L 211.6912,64.059602 C 211.6912,67.037102 209.2781,69.451202 206.2996,69.451202 L 194.1248,69.451202 C 191.1463,69.451202 188.7322,67.037102 188.7322,64.059602 L 188.7322,51.883802 C 188.7322,48.906302 191.1462,46.493202 194.1248,46.493202 z"
         style="fill:#edd400" />
      <path
         id="rect303_1_"
         d="M 223.7312,46.493202 L 235.907,46.493202 C 238.8845,46.493202 241.2976,48.906302 241.2976,51.883802 L 241.2976,64.059602 C 241.2976,67.037102 238.8845,69.451202 235.907,69.451202 L 223.7312,69.451202 C 220.7537,69.451202 218.3396,67.037102 218.3396,64.059602 L 218.3396,51.883802 C 218.3396,48.906302 220.7537,46.493202 223.7312,46.493202 z"
         style="fill:#c4a000" />
      <path
         id="rect305_1_"
         d="M 164.5164,105.708 L 176.6932,105.708 C 179.6698,105.708 182.0828,108.1211 182.0828,111.0996 L 182.0828,123.2744 C 182.0828,126.2519 179.6697,128.666 176.6932,128.666 L 164.5164,128.666 C 161.5398,128.666 159.1248,126.2519 159.1248,123.2744 L 159.1248,111.0996 C 159.1248,108.1211 161.5398,105.708 164.5164,105.708 z"
         style="fill:#e9b96e" />
      <path
         id="rect306_1_"
         d="M 194.1248,105.708 L 206.2996,105.708 C 209.2781,105.708 211.6912,108.1211 211.6912,111.0996 L 211.6912,123.2744 C 211.6912,126.2519 209.2781,128.666 206.2996,128.666 L 194.1248,128.666 C 191.1463,128.666 188.7322,126.2519 188.7322,123.2744 L 188.7322,111.0996 C 188.7322,108.1211 191.1462,105.708 194.1248,105.708 z"
         style="fill:#c17d11" />
      <path
         id="rect307_1_"
         d="M 223.7312,105.708 L 235.907,105.708 C 238.8845,105.708 241.2976,108.1211 241.2976,111.0996 L 241.2976,123.2744 C 241.2976,126.2519 238.8845,128.666 235.907,128.666 L 223.7312,128.666 C 220.7537,128.666 218.3396,126.2519 218.3396,123.2744 L 218.3396,111.0996 C 218.3396,108.1211 220.7537,105.708 223.7312,105.708 z"
         style="fill:#8f5902" />
      <path
         id="rect141_2_"
         d="M 164.5164,194.9238 L 176.6932,194.9238 C 179.6698,194.9238 182.0828,197.3369 182.0828,200.3144 L 182.0828,212.4892 C 182.0828,215.4677 179.6697,217.8818 176.6932,217.8818 L 164.5164,217.8818 C 161.5398,217.8818 159.1248,215.4677 159.1248,212.4892 L 159.1248,200.3144 C 159.1248,197.3369 161.5398,194.9238 164.5164,194.9238 z"
         style="fill:#ad7fa8" />
      <path
         id="rect147_2_"
         d="M 194.1248,194.9238 L 206.2996,194.9238 C 209.2781,194.9238 211.6912,197.3369 211.6912,200.3144 L 211.6912,212.4892 C 211.6912,215.4677 209.2781,217.8818 206.2996,217.8818 L 194.1248,217.8818 C 191.1463,217.8818 188.7322,215.4677 188.7322,212.4892 L 188.7322,200.3144 C 188.7322,197.3369 191.1462,194.9238 194.1248,194.9238 z"
         style="fill:#75507b" />
      <path
         id="rect159_2_"
         d="M 223.7312,194.9238 L 235.907,194.9238 C 238.8845,194.9238 241.2976,197.3369 241.2976,200.3144 L 241.2976,212.4892 C 241.2976,215.4677 238.8845,217.8818 235.907,217.8818 L 223.7312,217.8818 C 220.7537,217.8818 218.3396,215.4677 218.3396,212.4892 L 218.3396,200.3144 C 218.3396,197.3369 220.7537,194.9238 223.7312,194.9238 z"
         style="fill:#5c3566" />
      <text
         id="text1529"
         x="142.30692"
         y="178.88181"
         style="fill:#a7a7a7;fill-opacity:1">
        <tspan
           x="142.30692"
           y="178.88181"
           font-size="8"
           id="tspan1531"
           style="font-size:8px" />
      </text>
      <text
         id="text1533"
         x="106.27762"
         y="60.861805"
         style="font-size:12px;font-style:normal;font-variant:normal;font-weight:bold;font-stretch:normal;line-height:100%;writing-mode:lr-tb;text-anchor:start;fill:#a7a7a7;fill-opacity:1;font-family:Trebuchet MS"
         sodipodi:linespacing="100%">
        <tspan
           x="106.27762"
           y="60.861805"
           font-size="11"
           id="tspan1535"
           style="font-size:11px;font-family:Trebuchet MS">Butter</tspan>
      </text>
      <text
         id="text1537"
         x="106.36356"
         y="90.468803"
         style="font-size:12px;font-style:normal;font-variant:normal;font-weight:bold;font-stretch:normal;line-height:100%;writing-mode:lr-tb;text-anchor:start;fill:#a7a7a7;fill-opacity:1;font-family:Trebuchet MS"
         sodipodi:linespacing="100%">
        <tspan
           x="106.36356"
           y="90.468803"
           font-size="11"
           id="tspan1539"
           style="font-size:11px;font-family:Trebuchet MS">Orange</tspan>
      </text>
      <text
         id="text1541"
         x="91.517853"
         y="120.07671"
         style="font-size:12px;font-style:normal;font-variant:normal;font-weight:bold;font-stretch:normal;line-height:100%;writing-mode:lr-tb;text-anchor:start;fill:#a7a7a7;fill-opacity:1;font-family:Trebuchet MS"
         sodipodi:linespacing="100%">
        <tspan
           x="91.517853"
           y="120.07671"
           font-size="11"
           id="tspan1543"
           style="font-size:11px;font-family:Trebuchet MS">Chocolate</tspan>
      </text>
      <text
         id="text1545"
         x="85.85672"
         y="149.68359"
         style="font-size:12px;font-style:normal;font-variant:normal;font-weight:bold;font-stretch:normal;line-height:100%;writing-mode:lr-tb;text-anchor:start;fill:#a7a7a7;fill-opacity:1;font-family:Trebuchet MS"
         sodipodi:linespacing="100%">
        <tspan
           x="85.85672"
           y="149.68359"
           font-size="11"
           id="tspan1547"
           style="font-size:11px;font-family:Trebuchet MS">Chameleon</tspan>
      </text>
      <text
         id="text1549"
         x="99.187775"
         y="179.29199"
         style="font-size:12px;font-style:normal;font-variant:normal;font-weight:bold;font-stretch:normal;line-height:100%;writing-mode:lr-tb;text-anchor:start;fill:#a7a7a7;fill-opacity:1;font-family:Trebuchet MS"
         sodipodi:linespacing="100%">
        <tspan
           x="99.187775"
           y="179.29199"
           font-size="11"
           id="tspan1551"
           style="font-size:11px;font-family:Trebuchet MS">Sky Blue</tspan>
      </text>
      <text
         id="text1553"
         x="142.30692"
         y="208.88181"
         style="fill:#a7a7a7;fill-opacity:1">
        <tspan
           x="142.30692"
           y="208.88181"
           font-size="8"
           id="tspan1555"
           style="font-size:8px" />
      </text>
      <text
         id="text1557"
         x="117.35818"
         y="209.29199"
         style="font-size:12px;font-style:normal;font-variant:normal;font-weight:bold;font-stretch:normal;line-height:100%;writing-mode:lr-tb;text-anchor:start;fill:#a7a7a7;fill-opacity:1;font-family:Trebuchet MS"
         sodipodi:linespacing="100%">
        <tspan
           x="117.35818"
           y="209.29199"
           font-size="11"
           id="tspan1559"
           style="font-size:11px;font-family:Trebuchet MS">Plum</tspan>
      </text>
      <text
         id="text1561"
         x="84.438751"
         y="238.89841"
         style="font-size:12px;font-style:normal;font-variant:normal;font-weight:bold;font-stretch:normal;line-height:100%;writing-mode:lr-tb;text-anchor:start;fill:#a7a7a7;fill-opacity:1;font-family:Trebuchet MS"
         sodipodi:linespacing="100%">
        <tspan
           x="84.438751"
           y="238.89841"
           font-size="11"
           id="tspan1563"
           style="font-size:11px;font-family:Trebuchet MS">Scarlet Red</tspan>
      </text>
      <text
         id="text1565"
         x="87.838654"
         y="283.3096"
         style="font-size:12px;font-style:normal;font-variant:normal;font-weight:bold;font-stretch:normal;line-height:100%;writing-mode:lr-tb;text-anchor:start;fill:#a7a7a7;fill-opacity:1;font-family:Trebuchet MS"
         sodipodi:linespacing="100%">
        <tspan
           x="87.838654"
           y="283.3096"
           font-size="11"
           id="tspan1567"
           style="font-size:11px;font-family:Trebuchet MS">Aluminium</tspan>
      </text>
      <path
         id="rect170_1_"
         d="M 164.5164,224.5293 L 176.6932,224.5293 C 179.6698,224.5293 182.0828,226.9443 182.0828,229.9219 L 182.0828,242.0977 C 182.0828,245.0743 179.6697,247.4903 176.6932,247.4903 L 164.5164,247.4903 C 161.5398,247.4903 159.1248,245.0743 159.1248,242.0977 L 159.1248,229.9219 C 159.1248,226.9443 161.5398,224.5293 164.5164,224.5293 z"
         style="fill:#ef2929" />
      <path
         id="rect182_1_"
         d="M 194.1248,224.5293 L 206.2996,224.5293 C 209.2781,224.5293 211.6912,226.9443 211.6912,229.9219 L 211.6912,242.0977 C 211.6912,245.0743 209.2781,247.4903 206.2996,247.4903 L 194.1248,247.4903 C 191.1463,247.4903 188.7322,245.0743 188.7322,242.0977 L 188.7322,229.9219 C 188.7322,226.9443 191.1462,224.5293 194.1248,224.5293 z"
         style="fill:#cc0000" />
      <path
         id="rect344_1_"
         d="M 223.3259,224.5293 L 235.5007,224.5293 C 238.4782,224.5293 240.8943,226.9443 240.8943,229.9219 L 240.8943,242.0977 C 240.8943,245.0743 238.4783,247.4903 235.5007,247.4903 L 223.3259,247.4903 C 220.3484,247.4903 217.9343,245.0743 217.9343,242.0977 L 217.9343,229.9219 C 217.9343,226.9443 220.3484,224.5293 223.3259,224.5293 z"
         style="fill:#a40000" />
      <g
         inkscape:label="hex triplets"
         id="g3422">
        <text
           sodipodi:linespacing="100%"
           id="text2362"
           y="66.332603"
           x="162.72771"
           style="font-size:3.68000007px;font-style:normal;font-variant:normal;font-weight:normal;font-stretch:normal;text-align:start;line-height:100%;writing-mode:lr-tb;text-anchor:start;fill:#000000;fill-opacity:1;stroke:none;stroke-width:1px;stroke-linecap:butt;stroke-linejoin:miter;stroke-opacity:1;font-family:Segoe"
           xml:space="preserve"><tspan
             y="66.332603"
             x="162.72771"
             id="tspan2364"
             sodipodi:role="line">#fce94f</tspan></text>
        <text
           xml:space="preserve"
           style="font-size:3.68000007px;font-style:normal;font-variant:normal;font-weight:normal;font-stretch:normal;text-align:start;line-height:100%;writing-mode:lr-tb;text-anchor:start;fill:#000000;fill-opacity:1;stroke:none;stroke-width:1px;stroke-linecap:butt;stroke-linejoin:miter;stroke-opacity:1;font-family:Segoe"
           x="162.72771"
           y="95.582596"
           id="text2366"
           sodipodi:linespacing="100%"><tspan
             sodipodi:role="line"
             id="tspan2368"
             x="162.72771"
             y="95.582596">#fcaf3e</tspan></text>
        <text
           sodipodi:linespacing="100%"
           id="text2370"
           y="125.0826"
           x="162.72771"
           style="font-size:3.68000007px;font-style:normal;font-variant:normal;font-weight:normal;font-stretch:normal;text-align:start;line-height:100%;writing-mode:lr-tb;text-anchor:start;fill:#000000;fill-opacity:1;stroke:none;stroke-width:1px;stroke-linecap:butt;stroke-linejoin:miter;stroke-opacity:1;font-family:Segoe"
           xml:space="preserve"><tspan
             y="125.0826"
             x="162.72771"
             id="tspan2372"
             sodipodi:role="line">#e9b96e</tspan></text>
        <text
           xml:space="preserve"
           style="font-size:3.68000007px;font-style:normal;font-variant:normal;font-weight:normal;font-stretch:normal;text-align:start;line-height:100%;writing-mode:lr-tb;text-anchor:start;fill:#000000;fill-opacity:1;stroke:none;stroke-width:1px;stroke-linecap:butt;stroke-linejoin:miter;stroke-opacity:1;font-family:Segoe"
           x="162.72771"
           y="154.3326"
           id="text2374"
           sodipodi:linespacing="100%"><tspan
             sodipodi:role="line"
             id="tspan2376"
             x="162.72771"
             y="154.3326">#8ae234</tspan></text>
        <text
           sodipodi:linespacing="100%"
           id="text2378"
           y="183.8326"
           x="162.72771"
           style="font-size:3.68000007px;font-style:normal;font-variant:normal;font-weight:normal;font-stretch:normal;text-align:start;line-height:100%;writing-mode:lr-tb;text-anchor:start;fill:#000000;fill-opacity:1;stroke:none;stroke-width:1px;stroke-linecap:butt;stroke-linejoin:miter;stroke-opacity:1;font-family:Segoe"
           xml:space="preserve"><tspan
             y="183.8326"
             x="162.72771"
             id="tspan2380"
             sodipodi:role="line">#729fcf</tspan></text>
        <text
           xml:space="preserve"
           style="font-size:3.68000007px;font-style:normal;font-variant:normal;font-weight:normal;font-stretch:normal;text-align:start;line-height:100%;writing-mode:lr-tb;text-anchor:start;fill:#ffffff;fill-opacity:1;stroke:none;stroke-width:1px;stroke-linecap:butt;stroke-linejoin:miter;stroke-opacity:1;font-family:Segoe"
           x="162.72771"
           y="214.0826"
           id="text2382"
           sodipodi:linespacing="100%"><tspan
             sodipodi:role="line"
             id="tspan2384"
             x="162.72771"
             y="214.0826">#ad7fa8</tspan></text>
        <text
           sodipodi:linespacing="100%"
           id="text2386"
           y="243.5826"
           x="162.72771"
           style="font-size:3.68000007px;font-style:normal;font-variant:normal;font-weight:normal;font-stretch:normal;text-align:start;line-height:100%;writing-mode:lr-tb;text-anchor:start;fill:#ffffff;fill-opacity:1;stroke:none;stroke-width:1px;stroke-linecap:butt;stroke-linejoin:miter;stroke-opacity:1;font-family:Segoe"
           xml:space="preserve"><tspan
             y="243.5826"
             x="162.72771"
             id="tspan2388"
             sodipodi:role="line">#ef2929</tspan></text>
        <text
           xml:space="preserve"
           style="font-size:3.68000007px;font-style:normal;font-variant:normal;font-weight:normal;font-stretch:normal;text-align:start;line-height:100%;writing-mode:lr-tb;text-anchor:start;fill:#000000;fill-opacity:1;stroke:none;stroke-width:1px;stroke-linecap:butt;stroke-linejoin:miter;stroke-opacity:1;font-family:Segoe"
           x="162.72771"
           y="288.58264"
           id="text2390"
           sodipodi:linespacing="100%"><tspan
             sodipodi:role="line"
             id="tspan2392"
             x="162.72771"
             y="288.58264">#eeeeec</tspan></text>
        <text
           sodipodi:linespacing="100%"
           id="text2394"
           y="317.58264"
           x="162.72771"
           style="font-size:3.68000007px;font-style:normal;font-variant:normal;font-weight:normal;font-stretch:normal;text-align:start;line-height:100%;writing-mode:lr-tb;text-anchor:start;fill:#ffffff;fill-opacity:1;stroke:none;stroke-width:1px;stroke-linecap:butt;stroke-linejoin:miter;stroke-opacity:1;font-family:Segoe"
           xml:space="preserve"><tspan
             y="317.58264"
             x="162.72771"
             id="tspan2396"
             sodipodi:role="line">#888a85</tspan></text>
        <text
           xml:space="preserve"
           style="font-size:3.68000007px;font-style:normal;font-variant:normal;font-weight:normal;font-stretch:normal;text-align:start;line-height:100%;writing-mode:lr-tb;text-anchor:start;fill:#000000;fill-opacity:1;stroke:none;stroke-width:1px;stroke-linecap:butt;stroke-linejoin:miter;stroke-opacity:1;font-family:Segoe"
           x="192.72771"
           y="66.332603"
           id="text2398"
           sodipodi:linespacing="100%"><tspan
             sodipodi:role="line"
             id="tspan2400"
             x="192.72771"
             y="66.332603">#edd400</tspan></text>
        <text
           sodipodi:linespacing="100%"
           id="text2402"
           y="95.582596"
           x="192.72771"
           style="font-size:3.68000007px;font-style:normal;font-variant:normal;font-weight:normal;font-stretch:normal;text-align:start;line-height:100%;writing-mode:lr-tb;text-anchor:start;fill:#ffffff;fill-opacity:1;stroke:none;stroke-width:1px;stroke-linecap:butt;stroke-linejoin:miter;stroke-opacity:1;font-family:Segoe"
           xml:space="preserve"><tspan
             y="95.582596"
             x="192.72771"
             id="tspan2404"
             sodipodi:role="line">#f57900</tspan></text>
        <text
           xml:space="preserve"
           style="font-size:3.68000007px;font-style:normal;font-variant:normal;font-weight:normal;font-stretch:normal;text-align:start;line-height:100%;writing-mode:lr-tb;text-anchor:start;fill:#ffffff;fill-opacity:1;stroke:none;stroke-width:1px;stroke-linecap:butt;stroke-linejoin:miter;stroke-opacity:1;font-family:Segoe"
           x="192.72771"
           y="125.0826"
           id="text2406"
           sodipodi:linespacing="100%"><tspan
             sodipodi:role="line"
             id="tspan2408"
             x="192.72771"
             y="125.0826">#c17d11</tspan></text>
        <text
           sodipodi:linespacing="100%"
           id="text2410"
           y="154.3326"
           x="192.72771"
           style="font-size:3.68000007px;font-style:normal;font-variant:normal;font-weight:normal;font-stretch:normal;text-align:start;line-height:100%;writing-mode:lr-tb;text-anchor:start;fill:#000000;fill-opacity:1;stroke:none;stroke-width:1px;stroke-linecap:butt;stroke-linejoin:miter;stroke-opacity:1;font-family:Segoe"
           xml:space="preserve"><tspan
             y="154.3326"
             x="192.72771"
             id="tspan2412"
             sodipodi:role="line">#73d216</tspan></text>
        <text
           xml:space="preserve"
           style="font-size:3.68000007px;font-style:normal;font-variant:normal;font-weight:normal;font-stretch:normal;text-align:start;line-height:100%;writing-mode:lr-tb;text-anchor:start;fill:#ffffff;fill-opacity:1;stroke:none;stroke-width:1px;stroke-linecap:butt;stroke-linejoin:miter;stroke-opacity:1;font-family:Segoe"
           x="192.72771"
           y="183.8326"
           id="text2414"
           sodipodi:linespacing="100%"><tspan
             sodipodi:role="line"
             id="tspan2416"
             x="192.72771"
             y="183.8326">#3465a4</tspan></text>
        <text
           sodipodi:linespacing="100%"
           id="text2418"
           y="214.0826"
           x="192.72771"
           style="font-size:3.68000007px;font-style:normal;font-variant:normal;font-weight:normal;font-stretch:normal;text-align:start;line-height:100%;writing-mode:lr-tb;text-anchor:start;fill:#ffffff;fill-opacity:1;stroke:none;stroke-width:1px;stroke-linecap:butt;stroke-linejoin:miter;stroke-opacity:1;font-family:Segoe"
           xml:space="preserve"><tspan
             y="214.0826"
             x="192.72771"
             id="tspan2420"
             sodipodi:role="line">#75507b</tspan></text>
        <text
           xml:space="preserve"
           style="font-size:3.68000007px;font-style:normal;font-variant:normal;font-weight:normal;font-stretch:normal;text-align:start;line-height:100%;writing-mode:lr-tb;text-anchor:start;fill:#ffffff;fill-opacity:1;stroke:none;stroke-width:1px;stroke-linecap:butt;stroke-linejoin:miter;stroke-opacity:1;font-family:Segoe"
           x="192.72771"
           y="243.5826"
           id="text2422"
           sodipodi:linespacing="100%"><tspan
             sodipodi:role="line"
             id="tspan2424"
             x="192.72771"
             y="243.5826">#cc0000</tspan></text>
        <text
           sodipodi:linespacing="100%"
           id="text2426"
           y="288.58264"
           x="192.72771"
           style="font-size:3.68000007px;font-style:normal;font-variant:normal;font-weight:normal;font-stretch:normal;text-align:start;line-height:100%;writing-mode:lr-tb;text-anchor:start;fill:#000000;fill-opacity:1;stroke:none;stroke-width:1px;stroke-linecap:butt;stroke-linejoin:miter;stroke-opacity:1;font-family:Segoe"
           xml:space="preserve"><tspan
             y="288.58264"
             x="192.72771"
             id="tspan2428"
             sodipodi:role="line">#d3d7cf</tspan></text>
        <text
           xml:space="preserve"
           style="font-size:3.68000007px;font-style:normal;font-variant:normal;font-weight:normal;font-stretch:normal;text-align:start;line-height:100%;writing-mode:lr-tb;text-anchor:start;fill:#ffffff;fill-opacity:1;stroke:none;stroke-width:1px;stroke-linecap:butt;stroke-linejoin:miter;stroke-opacity:1;font-family:Segoe"
           x="192.72771"
           y="317.58264"
           id="text2430"
           sodipodi:linespacing="100%"><tspan
             sodipodi:role="line"
             id="tspan2432"
             x="192.72771"
             y="317.58264">#555753</tspan></text>
        <text
           sodipodi:linespacing="100%"
           id="text2434"
           y="66.332603"
           x="222.72771"
           style="font-size:3.68000007px;font-style:normal;font-variant:normal;font-weight:normal;font-stretch:normal;text-align:start;line-height:100%;writing-mode:lr-tb;text-anchor:start;fill:#ffffff;fill-opacity:1;stroke:none;stroke-width:1px;stroke-linecap:butt;stroke-linejoin:miter;stroke-opacity:1;font-family:Segoe"
           xml:space="preserve"><tspan
             y="66.332603"
             x="222.72771"
             id="tspan2436"
             sodipodi:role="line">#c4a000</tspan></text>
        <text
           xml:space="preserve"
           style="font-size:3.68000007px;font-style:normal;font-variant:normal;font-weight:normal;font-stretch:normal;text-align:start;line-height:100%;writing-mode:lr-tb;text-anchor:start;fill:#ffffff;fill-opacity:1;stroke:none;stroke-width:1px;stroke-linecap:butt;stroke-linejoin:miter;stroke-opacity:1;font-family:Segoe"
           x="222.72771"
           y="95.582596"
           id="text2438"
           sodipodi:linespacing="100%"><tspan
             sodipodi:role="line"
             id="tspan2440"
             x="222.72771"
             y="95.582596">#ce5c00</tspan></text>
        <text
           sodipodi:linespacing="100%"
           id="text2442"
           y="125.0826"
           x="222.72771"
           style="font-size:3.68000007px;font-style:normal;font-variant:normal;font-weight:normal;font-stretch:normal;text-align:start;line-height:100%;writing-mode:lr-tb;text-anchor:start;fill:#ffffff;fill-opacity:1;stroke:none;stroke-width:1px;stroke-linecap:butt;stroke-linejoin:miter;stroke-opacity:1;font-family:Segoe"
           xml:space="preserve"><tspan
             y="125.0826"
             x="222.72771"
             id="tspan2444"
             sodipodi:role="line">#8f5902</tspan></text>
        <text
           xml:space="preserve"
           style="font-size:3.68000007px;font-style:normal;font-variant:normal;font-weight:normal;font-stretch:normal;text-align:start;line-height:100%;writing-mode:lr-tb;text-anchor:start;fill:#ffffff;fill-opacity:1;stroke:none;stroke-width:1px;stroke-linecap:butt;stroke-linejoin:miter;stroke-opacity:1;font-family:Segoe"
           x="222.72771"
           y="154.3326"
           id="text2446"
           sodipodi:linespacing="100%"><tspan
             sodipodi:role="line"
             id="tspan2448"
             x="222.72771"
             y="154.3326">#4e9a06</tspan></text>
        <text
           sodipodi:linespacing="100%"
           id="text2450"
           y="183.8326"
           x="222.72771"
           style="font-size:3.68000007px;font-style:normal;font-variant:normal;font-weight:normal;font-stretch:normal;text-align:start;line-height:100%;writing-mode:lr-tb;text-anchor:start;fill:#ffffff;fill-opacity:1;stroke:none;stroke-width:1px;stroke-linecap:butt;stroke-linejoin:miter;stroke-opacity:1;font-family:Segoe"
           xml:space="preserve"><tspan
             y="183.8326"
             x="222.72771"
             id="tspan2452"
             sodipodi:role="line">#204a87</tspan></text>
        <text
           xml:space="preserve"
           style="font-size:3.68000007px;font-style:normal;font-variant:normal;font-weight:normal;font-stretch:normal;text-align:start;line-height:100%;writing-mode:lr-tb;text-anchor:start;fill:#ffffff;fill-opacity:1;stroke:none;stroke-width:1px;stroke-linecap:butt;stroke-linejoin:miter;stroke-opacity:1;font-family:Segoe"
           x="222.72771"
           y="214.0826"
           id="text2454"
           sodipodi:linespacing="100%"><tspan
             sodipodi:role="line"
             id="tspan2456"
             x="222.72771"
             y="214.0826">#5c3566</tspan></text>
        <text
           sodipodi:linespacing="100%"
           id="text2458"
           y="243.5826"
           x="222.72771"
           style="font-size:3.68000007px;font-style:normal;font-variant:normal;font-weight:normal;font-stretch:normal;text-align:start;line-height:100%;writing-mode:lr-tb;text-anchor:start;fill:#ffffff;fill-opacity:1;stroke:none;stroke-width:1px;stroke-linecap:butt;stroke-linejoin:miter;stroke-opacity:1;font-family:Segoe"
           xml:space="preserve"><tspan
             y="243.5826"
             x="222.72771"
             id="tspan2460"
             sodipodi:role="line">#a40000</tspan></text>
        <text
           xml:space="preserve"
           style="font-size:3.68000007px;font-style:normal;font-variant:normal;font-weight:normal;font-stretch:normal;text-align:start;line-height:100%;writing-mode:lr-tb;text-anchor:start;fill:#000000;fill-opacity:1;stroke:none;stroke-width:1px;stroke-linecap:butt;stroke-linejoin:miter;stroke-opacity:1;font-family:Segoe"
           x="222.72771"
           y="288.58264"
           id="text2462"
           sodipodi:linespacing="100%"><tspan
             sodipodi:role="line"
             id="tspan2464"
             x="222.72771"
             y="288.58264">#babdb6</tspan></text>
        <text
           sodipodi:linespacing="100%"
           id="text2466"
           y="317.58264"
           x="222.72771"
           style="font-size:3.68000007px;font-style:normal;font-variant:normal;font-weight:normal;font-stretch:normal;text-align:start;line-height:100%;writing-mode:lr-tb;text-anchor:start;fill:#ffffff;fill-opacity:1;stroke:none;stroke-width:1px;stroke-linecap:butt;stroke-linejoin:miter;stroke-opacity:1;font-family:Segoe"
           xml:space="preserve"><tspan
             y="317.58264"
             x="222.72771"
             id="tspan2468"
             sodipodi:role="line">#2e3436</tspan></text>
      </g>
    </g>
  </g>
</svg>
